<svg width="10" height="10" viewBox="0 0 10 10" fill="none" xmlns="http://www.w3.org/2000/svg">
<g clip-path="url(#clip0_135_391)">
<path fill-rule="evenodd" clip-rule="evenodd" d="M6.25 0.520874H4.55983C3.7941 0.520868 3.18758 0.520862 2.71291 0.58468C2.2244 0.650359 1.829 0.788741 1.51718 1.10056C1.20537 1.41238 1.06698 1.80777 1.00131 2.29628C0.937488 2.77095 0.937494 3.37747 0.9375 4.1432V6.66671C0.9375 7.44681 1.50919 8.09339 2.25646 8.21034C2.31395 8.52867 2.42397 8.80039 2.64515 9.02156C2.89594 9.27236 3.21173 9.38023 3.58677 9.43066C3.94801 9.47922 4.40731 9.47922 4.97714 9.47921H6.27286C6.84269 9.47922 7.30199 9.47922 7.66323 9.43066C8.03828 9.38023 8.35406 9.27236 8.60486 9.02156C8.85565 8.77076 8.96353 8.45498 9.01395 8.07994C9.06252 7.7187 9.06251 7.2594 9.0625 6.68957V4.56051C9.06251 3.99068 9.06252 3.53138 9.01395 3.17014C8.96353 2.7951 8.85565 2.47932 8.60486 2.22852C8.38368 2.00734 8.11197 1.89733 7.79363 1.83984C7.67668 1.09256 7.0301 0.520874 6.25 0.520874ZM7.13722 1.77969C7.01105 1.41097 6.66148 1.14587 6.25 1.14587H4.58333C3.78883 1.14587 3.22438 1.14654 2.79619 1.20411C2.37698 1.26047 2.13546 1.36616 1.95913 1.5425C1.78279 1.71884 1.67709 1.96036 1.62073 2.37956C1.56316 2.80775 1.5625 3.3722 1.5625 4.16671V6.66671C1.5625 7.07819 1.8276 7.42775 2.19632 7.55393C2.18749 7.29978 2.1875 7.01241 2.1875 6.68957V4.56051C2.18749 3.99068 2.18748 3.53138 2.23605 3.17014C2.28648 2.7951 2.39435 2.47932 2.64515 2.22852C2.89594 1.97772 3.21173 1.86985 3.58677 1.81943C3.94801 1.77086 4.40731 1.77087 4.97714 1.77087H6.27287C6.59571 1.77087 6.88307 1.77087 7.13722 1.77969ZM3.08709 2.67046C3.20241 2.55514 3.36431 2.47996 3.67005 2.43885C3.98478 2.39654 4.40191 2.39587 5 2.39587H6.25C6.84809 2.39587 7.26522 2.39654 7.57995 2.43885C7.88569 2.47996 8.0476 2.55514 8.16291 2.67046C8.27823 2.78578 8.35342 2.94768 8.39452 3.25342C8.43684 3.56815 8.4375 3.98528 8.4375 4.58337V6.66671C8.4375 7.2648 8.43684 7.68193 8.39452 7.99666C8.35342 8.3024 8.27823 8.4643 8.16291 8.57962C8.0476 8.69494 7.88569 8.77012 7.57995 8.81123C7.26522 8.85354 6.84809 8.85421 6.25 8.85421H5C4.40191 8.85421 3.98478 8.85354 3.67005 8.81123C3.36431 8.77012 3.20241 8.69494 3.08709 8.57962C2.97177 8.4643 2.89658 8.3024 2.85548 7.99666C2.81316 7.68193 2.8125 7.2648 2.8125 6.66671V4.58337C2.8125 3.98528 2.81316 3.56815 2.85548 3.25342C2.89658 2.94768 2.97177 2.78578 3.08709 2.67046Z" fill="#8A91A8"/>
</g>
<defs>
<clipPath id="clip0_135_391">
<rect width="10" height="10" fill="white"/>
</clipPath>
</defs>
</svg>
