<svg width="15" height="20" viewBox="0 0 15 20" fill="none" xmlns="http://www.w3.org/2000/svg">
<path fill-rule="evenodd" clip-rule="evenodd" d="M3.33333 4.16667C3.33333 1.86548 5.19881 0 7.5 0C9.80119 0 11.6667 1.86548 11.6667 4.16667C11.6667 6.46785 9.80119 8.33333 7.5 8.33333C5.19881 8.33333 3.33333 6.46785 3.33333 4.16667ZM7.5 1.66667C6.11929 1.66667 5 2.78596 5 4.16667C5 5.54738 6.11929 6.66667 7.5 6.66667C8.88071 6.66667 10 5.54738 10 4.16667C10 2.78596 8.88071 1.66667 7.5 1.66667Z" fill="#73CCB4"/>
<path fill-rule="evenodd" clip-rule="evenodd" d="M0 17.3523C2.05019 19.0083 4.65929 20 7.5 20C10.3407 20 12.9498 19.0083 15 17.3523C14.7996 16.271 14.1922 13.2032 13.4017 12.3834C12.2193 11.1572 10.3286 10.5556 7.49995 10.5556C4.67129 10.5556 2.78058 11.1572 1.59819 12.3834C0.807712 13.2032 0.200439 16.271 0 17.3523ZM12.2019 13.5403C12.8652 14.2281 13.1576 15.215 13.2708 16.5616C11.6256 17.6798 9.63914 18.3333 7.5 18.3333C5.36081 18.3333 3.37427 17.6798 1.72914 16.5615C1.84235 15.2149 2.13474 14.2281 2.79794 13.5403C3.51957 12.7919 4.85666 12.2222 7.49995 12.2222C10.1432 12.2222 11.4803 12.7919 12.2019 13.5403Z" fill="#73CCB4"/>
<path d="M5 4.16667C5 2.78596 6.11929 1.66667 7.5 1.66667C8.88071 1.66667 10 2.78596 10 4.16667C10 5.54738 8.88071 6.66667 7.5 6.66667C6.11929 6.66667 5 5.54738 5 4.16667Z" fill="#73CCB4"/>
<path d="M13.2708 16.5616C13.1576 15.215 12.8652 14.2281 12.2019 13.5403C11.4803 12.7919 10.1432 12.2222 7.49995 12.2222C4.85666 12.2222 3.51957 12.7919 2.79794 13.5403C2.13474 14.2281 1.84235 15.2149 1.72914 16.5615C3.37427 17.6798 5.36081 18.3333 7.5 18.3333C9.63914 18.3333 11.6256 17.6798 13.2708 16.5616Z" fill="#73CCB4"/>
</svg>
