<svg width="23" height="24" viewBox="0 0 23 24" fill="none" xmlns="http://www.w3.org/2000/svg">
<g clip-path="url(#clip0_13_59)">
<path d="M23 12.2756C23 11.4599 22.9353 10.6397 22.7974 9.83722H11.7307V14.4582H18.068C17.8051 15.9486 16.9601 17.2669 15.7228 18.1047V21.1031H19.5037C21.7239 19.013 23 15.9265 23 12.2756Z" fill="#4285F4"/>
<path d="M11.7306 24C14.895 24 17.5636 22.9373 19.508 21.103L15.7271 18.1047C14.6752 18.8366 13.3171 19.2511 11.7349 19.2511C8.67403 19.2511 6.07871 17.139 5.1475 14.2994H1.24591V17.3904C3.23766 21.4426 7.29446 24 11.7306 24V24Z" fill="#34A853"/>
<path d="M5.14322 14.2995C4.65175 12.8091 4.65175 11.1953 5.14322 9.70496V6.61401H1.24594C-0.418162 10.0048 -0.418162 13.9996 1.24594 17.3904L5.14322 14.2995V14.2995Z" fill="#FBBC04"/>
<path d="M11.7306 4.74887C13.4034 4.72241 15.02 5.36617 16.2315 6.54788L19.5812 3.12182C17.4602 1.08471 14.645 -0.0352595 11.7306 1.5209e-05C7.29446 1.5209e-05 3.23766 2.55743 1.24591 6.61402L5.14319 9.70496C6.07009 6.86094 8.66972 4.74887 11.7306 4.74887V4.74887Z" fill="#EA4335"/>
</g>
<defs>
<clipPath id="clip0_13_59">
<rect width="23" height="24" fill="white"/>
</clipPath>
</defs>
</svg>
